<svg id="visual" viewBox="0 0 900 600" width="900" height="600" xmlns="http://www.w3.org/2000/svg" xmlns:xlink="http://www.w3.org/1999/xlink" version="1.1"><g stroke-width="1" stroke-linejoin="bevel"><path d="M483 331L394 297L464 368Z" fill="#277297" stroke="#277297"></path><path d="M483 331L463 233L394 297Z" fill="#297ea6" stroke="#297ea6"></path><path d="M394 297L427 434L464 368Z" fill="#0c2435" stroke="#0c2435"></path><path d="M463 233L386 208L394 297Z" fill="#205a7a" stroke="#205a7a"></path><path d="M386 208L295 312L394 297Z" fill="#0c2435" stroke="#0c2435"></path><path d="M394 297L280 399L427 434Z" fill="#081a28" stroke="#081a28"></path><path d="M629 386L586 277L483 331Z" fill="#112e42" stroke="#112e42"></path><path d="M483 331L586 277L463 233Z" fill="#1d4e6b" stroke="#1d4e6b"></path><path d="M629 386L483 331L464 368Z" fill="#00101c" stroke="#00101c"></path><path d="M280 399L414 490L427 434Z" fill="#277297" stroke="#277297"></path><path d="M427 434L485 490L464 368Z" fill="#15384f" stroke="#15384f"></path><path d="M295 312L280 399L394 297Z" fill="#081a28" stroke="#081a28"></path><path d="M414 490L485 490L427 434Z" fill="#205a7a" stroke="#205a7a"></path><path d="M386 208L284 200L295 312Z" fill="#19435d" stroke="#19435d"></path><path d="M295 312L236 322L280 399Z" fill="#00101c" stroke="#00101c"></path><path d="M284 200L236 322L295 312Z" fill="#277297" stroke="#277297"></path><path d="M485 490L629 386L464 368Z" fill="#246688" stroke="#246688"></path><path d="M386 208L406 120L284 200Z" fill="#00101c" stroke="#00101c"></path><path d="M463 233L406 120L386 208Z" fill="#246688" stroke="#246688"></path><path d="M501 125L406 120L463 233Z" fill="#1d4e6b" stroke="#1d4e6b"></path><path d="M586 277L501 125L463 233Z" fill="#15384f" stroke="#15384f"></path><path d="M221 528L300 526L280 399Z" fill="#1d4e6b" stroke="#1d4e6b"></path><path d="M280 399L300 526L414 490Z" fill="#19435d" stroke="#19435d"></path><path d="M414 490L435 600L485 490Z" fill="#297ea6" stroke="#297ea6"></path><path d="M687 304L638 189L586 277Z" fill="#081a28" stroke="#081a28"></path><path d="M586 277L638 189L501 125Z" fill="#0c2435" stroke="#0c2435"></path><path d="M113 334L196 410L236 322Z" fill="#112e42" stroke="#112e42"></path><path d="M236 322L196 410L280 399Z" fill="#081a28" stroke="#081a28"></path><path d="M629 386L687 304L586 277Z" fill="#19435d" stroke="#19435d"></path><path d="M485 490L638 482L629 386Z" fill="#1d4e6b" stroke="#1d4e6b"></path><path d="M629 386L697 411L687 304Z" fill="#15384f" stroke="#15384f"></path><path d="M564 600L638 482L485 490Z" fill="#15384f" stroke="#15384f"></path><path d="M300 526L435 600L414 490Z" fill="#297ea6" stroke="#297ea6"></path><path d="M435 600L470 600L485 490Z" fill="#00101c" stroke="#00101c"></path><path d="M638 482L697 411L629 386Z" fill="#15384f" stroke="#15384f"></path><path d="M682 100L626 125L638 189Z" fill="#15384f" stroke="#15384f"></path><path d="M638 189L626 125L501 125Z" fill="#246688" stroke="#246688"></path><path d="M438 0L319 67L406 120Z" fill="#19435d" stroke="#19435d"></path><path d="M406 120L319 67L284 200Z" fill="#1d4e6b" stroke="#1d4e6b"></path><path d="M284 200L165 190L236 322Z" fill="#15384f" stroke="#15384f"></path><path d="M438 0L406 120L501 125Z" fill="#15384f" stroke="#15384f"></path><path d="M196 410L221 528L280 399Z" fill="#00101c" stroke="#00101c"></path><path d="M300 526L283 600L435 600Z" fill="#205a7a" stroke="#205a7a"></path><path d="M687 304L700 192L638 189Z" fill="#1d4e6b" stroke="#1d4e6b"></path><path d="M775 272L700 192L687 304Z" fill="#205a7a" stroke="#205a7a"></path><path d="M638 482L685 492L697 411Z" fill="#277297" stroke="#277297"></path><path d="M686 600L685 492L638 482Z" fill="#0c2435" stroke="#0c2435"></path><path d="M470 600L564 600L485 490Z" fill="#297ea6" stroke="#297ea6"></path><path d="M235 68L165 190L284 200Z" fill="#205a7a" stroke="#205a7a"></path><path d="M221 528L283 600L300 526Z" fill="#205a7a" stroke="#205a7a"></path><path d="M165 190L113 334L236 322Z" fill="#19435d" stroke="#19435d"></path><path d="M196 410L109 474L221 528Z" fill="#205a7a" stroke="#205a7a"></path><path d="M319 67L235 68L284 200Z" fill="#0c2435" stroke="#0c2435"></path><path d="M499 0L438 0L501 125Z" fill="#00101c" stroke="#00101c"></path><path d="M319 67L267 0L235 68Z" fill="#15384f" stroke="#15384f"></path><path d="M626 125L499 0L501 125Z" fill="#15384f" stroke="#15384f"></path><path d="M635 0L499 0L626 125Z" fill="#15384f" stroke="#15384f"></path><path d="M700 192L682 100L638 189Z" fill="#1d4e6b" stroke="#1d4e6b"></path><path d="M806 430L775 272L697 411Z" fill="#081a28" stroke="#081a28"></path><path d="M697 411L775 272L687 304Z" fill="#205a7a" stroke="#205a7a"></path><path d="M700 192L818 170L682 100Z" fill="#1d4e6b" stroke="#1d4e6b"></path><path d="M73 409L109 474L196 410Z" fill="#0c2435" stroke="#0c2435"></path><path d="M221 528L163 600L283 600Z" fill="#205a7a" stroke="#205a7a"></path><path d="M123 117L99 203L165 190Z" fill="#0c2435" stroke="#0c2435"></path><path d="M165 190L99 203L113 334Z" fill="#00101c" stroke="#00101c"></path><path d="M113 334L73 409L196 410Z" fill="#00101c" stroke="#00101c"></path><path d="M438 0L267 0L319 67Z" fill="#297ea6" stroke="#297ea6"></path><path d="M235 68L123 117L165 190Z" fill="#277297" stroke="#277297"></path><path d="M0 304L73 409L113 334Z" fill="#277297" stroke="#277297"></path><path d="M564 600L686 600L638 482Z" fill="#205a7a" stroke="#205a7a"></path><path d="M805 462L806 430L697 411Z" fill="#081a28" stroke="#081a28"></path><path d="M200 0L123 117L235 68Z" fill="#277297" stroke="#277297"></path><path d="M73 600L163 600L109 474Z" fill="#081a28" stroke="#081a28"></path><path d="M109 474L163 600L221 528Z" fill="#112e42" stroke="#112e42"></path><path d="M703 0L635 0L682 100Z" fill="#297ea6" stroke="#297ea6"></path><path d="M682 100L635 0L626 125Z" fill="#19435d" stroke="#19435d"></path><path d="M805 462L697 411L685 492Z" fill="#246688" stroke="#246688"></path><path d="M827 600L805 462L685 492Z" fill="#15384f" stroke="#15384f"></path><path d="M267 0L200 0L235 68Z" fill="#246688" stroke="#246688"></path><path d="M775 272L818 170L700 192Z" fill="#19435d" stroke="#19435d"></path><path d="M900 230L818 170L775 272Z" fill="#15384f" stroke="#15384f"></path><path d="M900 290L775 272L806 430Z" fill="#19435d" stroke="#19435d"></path><path d="M797 68L703 0L682 100Z" fill="#19435d" stroke="#19435d"></path><path d="M0 162L0 304L99 203Z" fill="#246688" stroke="#246688"></path><path d="M99 203L0 304L113 334Z" fill="#15384f" stroke="#15384f"></path><path d="M73 409L0 471L109 474Z" fill="#15384f" stroke="#15384f"></path><path d="M0 304L0 398L73 409Z" fill="#246688" stroke="#246688"></path><path d="M818 170L797 68L682 100Z" fill="#19435d" stroke="#19435d"></path><path d="M0 471L73 600L109 474Z" fill="#297ea6" stroke="#297ea6"></path><path d="M0 398L0 471L73 409Z" fill="#205a7a" stroke="#205a7a"></path><path d="M200 0L109 0L123 117Z" fill="#1d4e6b" stroke="#1d4e6b"></path><path d="M123 117L0 162L99 203Z" fill="#277297" stroke="#277297"></path><path d="M0 100L0 162L123 117Z" fill="#205a7a" stroke="#205a7a"></path><path d="M900 402L900 290L806 430Z" fill="#205a7a" stroke="#205a7a"></path><path d="M900 102L834 0L797 68Z" fill="#0c2435" stroke="#0c2435"></path><path d="M805 462L900 402L806 430Z" fill="#081a28" stroke="#081a28"></path><path d="M900 507L900 402L805 462Z" fill="#112e42" stroke="#112e42"></path><path d="M900 290L900 230L775 272Z" fill="#19435d" stroke="#19435d"></path><path d="M686 600L827 600L685 492Z" fill="#00101c" stroke="#00101c"></path><path d="M109 0L0 100L123 117Z" fill="#297ea6" stroke="#297ea6"></path><path d="M827 600L900 507L805 462Z" fill="#19435d" stroke="#19435d"></path><path d="M0 471L0 600L73 600Z" fill="#112e42" stroke="#112e42"></path><path d="M900 102L797 68L818 170Z" fill="#1d4e6b" stroke="#1d4e6b"></path><path d="M797 68L834 0L703 0Z" fill="#15384f" stroke="#15384f"></path><path d="M900 230L900 102L818 170Z" fill="#112e42" stroke="#112e42"></path><path d="M827 600L900 600L900 507Z" fill="#19435d" stroke="#19435d"></path><path d="M109 0L0 0L0 100Z" fill="#0c2435" stroke="#0c2435"></path><path d="M900 102L900 0L834 0Z" fill="#205a7a" stroke="#205a7a"></path></g></svg>